<?xml version="1.0" encoding="UTF-8" standalone="no"?>
<!-- Created with Inkscape (http://www.inkscape.org/) -->
<svg
   xmlns:dc="http://purl.org/dc/elements/1.1/"
   xmlns:cc="http://creativecommons.org/ns#"
   xmlns:rdf="http://www.w3.org/1999/02/22-rdf-syntax-ns#"
   xmlns:svg="http://www.w3.org/2000/svg"
   xmlns="http://www.w3.org/2000/svg"
   xmlns:xlink="http://www.w3.org/1999/xlink"
   xmlns:sodipodi="http://sodipodi.sourceforge.net/DTD/sodipodi-0.dtd"
   xmlns:inkscape="http://www.inkscape.org/namespaces/inkscape"
   width="106.29778"
   height="106.29814"
   id="svg5070"
   sodipodi:version="0.32"
   inkscape:version="0.46"
   sodipodi:docbase="/home/bruno/Projets/gcomprixogoo/src/reversecount-activity/resources/reversecount"
   sodipodi:docname="dice0.svgz"
   inkscape:export-filename="/home/franck/Gcompris/gartoon/level9.png"
   inkscape:export-xdpi="8.5762272"
   inkscape:export-ydpi="8.5762272"
   inkscape:output_extension="org.inkscape.output.svgz.inkscape"
   version="1.0">
  <defs
     id="defs3">
    <inkscape:perspective
       sodipodi:type="inkscape:persp3d"
       inkscape:vp_x="0 : 53.149071 : 1"
       inkscape:vp_y="0 : 1000 : 0"
       inkscape:vp_z="106.29778 : 53.149071 : 1"
       inkscape:persp3d-origin="53.148891 : 35.432714 : 1"
       id="perspective100" />
    <linearGradient
       inkscape:collect="always"
       id="linearGradient2815">
      <stop
         style="stop-color:#000000;stop-opacity:1;"
         offset="0"
         id="stop2817" />
      <stop
         style="stop-color:#000000;stop-opacity:0;"
         offset="1"
         id="stop2819" />
    </linearGradient>
    <linearGradient
       id="linearGradient16033">
      <stop
         id="stop16035"
         offset="0.0000000"
         style="stop-color:#ff0000;stop-opacity:1.0000000;" />
      <stop
         id="stop16037"
         offset="1.0000000"
         style="stop-color:#b01810;stop-opacity:1.0000000;" />
    </linearGradient>
    <linearGradient
       id="linearGradient10915">
      <stop
         style="stop-color:#ffe7ba;stop-opacity:1;"
         offset="0"
         id="stop10917" />
      <stop
         style="stop-color:#f2e46b;stop-opacity:1.0000000;"
         offset="1.0000000"
         id="stop10919" />
    </linearGradient>
    <linearGradient
       inkscape:collect="always"
       xlink:href="#linearGradient2815"
       id="linearGradient2821"
       x1="282.09094"
       y1="313.75546"
       x2="374.28571"
       y2="313.75546"
       gradientUnits="userSpaceOnUse" />
    <linearGradient
       inkscape:collect="always"
       xlink:href="#linearGradient2815"
       id="linearGradient2829"
       gradientUnits="userSpaceOnUse"
       x1="282.09094"
       y1="313.75546"
       x2="374.28571"
       y2="313.75546" />
    <linearGradient
       inkscape:collect="always"
       xlink:href="#linearGradient2815"
       id="linearGradient2831"
       gradientUnits="userSpaceOnUse"
       x1="282.09094"
       y1="313.75546"
       x2="374.28571"
       y2="313.75546" />
    <linearGradient
       inkscape:collect="always"
       xlink:href="#linearGradient2815"
       id="linearGradient2833"
       gradientUnits="userSpaceOnUse"
       x1="282.09094"
       y1="313.75546"
       x2="374.28571"
       y2="313.75546" />
    <linearGradient
       inkscape:collect="always"
       xlink:href="#linearGradient2815"
       id="linearGradient2843"
       gradientUnits="userSpaceOnUse"
       x1="282.09094"
       y1="313.75546"
       x2="374.28571"
       y2="313.75546" />
    <linearGradient
       inkscape:collect="always"
       xlink:href="#linearGradient2815"
       id="linearGradient2845"
       gradientUnits="userSpaceOnUse"
       x1="282.09094"
       y1="313.75546"
       x2="374.28571"
       y2="313.75546" />
    <linearGradient
       inkscape:collect="always"
       xlink:href="#linearGradient16033"
       id="linearGradient8199"
       x1="60.891617"
       y1="468.80392"
       x2="687.46136"
       y2="468.80392"
       gradientUnits="userSpaceOnUse" />
    <linearGradient
       inkscape:collect="always"
       xlink:href="#linearGradient2815"
       id="linearGradient8207"
       gradientUnits="userSpaceOnUse"
       x1="282.09094"
       y1="313.75546"
       x2="374.28571"
       y2="313.75546" />
    <linearGradient
       inkscape:collect="always"
       xlink:href="#linearGradient2815"
       id="linearGradient8209"
       gradientUnits="userSpaceOnUse"
       x1="282.09094"
       y1="313.75546"
       x2="374.28571"
       y2="313.75546" />
    <linearGradient
       inkscape:collect="always"
       xlink:href="#linearGradient2815"
       id="linearGradient8211"
       gradientUnits="userSpaceOnUse"
       x1="282.09094"
       y1="313.75546"
       x2="374.28571"
       y2="313.75546" />
    <linearGradient
       inkscape:collect="always"
       xlink:href="#linearGradient2815"
       id="linearGradient8272"
       gradientUnits="userSpaceOnUse"
       x1="282.09094"
       y1="313.75546"
       x2="374.28571"
       y2="313.75546" />
    <linearGradient
       inkscape:collect="always"
       xlink:href="#linearGradient2815"
       id="linearGradient8274"
       gradientUnits="userSpaceOnUse"
       x1="282.09094"
       y1="313.75546"
       x2="374.28571"
       y2="313.75546" />
    <linearGradient
       inkscape:collect="always"
       xlink:href="#linearGradient2815"
       id="linearGradient8276"
       gradientUnits="userSpaceOnUse"
       x1="282.09094"
       y1="313.75546"
       x2="374.28571"
       y2="313.75546" />
    <linearGradient
       inkscape:collect="always"
       xlink:href="#linearGradient2815"
       id="linearGradient8278"
       gradientUnits="userSpaceOnUse"
       x1="282.09094"
       y1="313.75546"
       x2="374.28571"
       y2="313.75546" />
    <linearGradient
       inkscape:collect="always"
       xlink:href="#linearGradient2815"
       id="linearGradient8280"
       gradientUnits="userSpaceOnUse"
       x1="282.09094"
       y1="313.75546"
       x2="374.28571"
       y2="313.75546" />
    <linearGradient
       inkscape:collect="always"
       xlink:href="#linearGradient2815"
       id="linearGradient8296"
       gradientUnits="userSpaceOnUse"
       x1="282.09094"
       y1="313.75546"
       x2="374.28571"
       y2="313.75546" />
    <linearGradient
       inkscape:collect="always"
       xlink:href="#linearGradient2815"
       id="linearGradient8298"
       gradientUnits="userSpaceOnUse"
       x1="282.09094"
       y1="313.75546"
       x2="374.28571"
       y2="313.75546" />
    <linearGradient
       inkscape:collect="always"
       xlink:href="#linearGradient2815"
       id="linearGradient8751"
       gradientUnits="userSpaceOnUse"
       x1="282.09094"
       y1="313.75546"
       x2="374.28571"
       y2="313.75546" />
    <linearGradient
       inkscape:collect="always"
       xlink:href="#linearGradient2815"
       id="linearGradient8753"
       gradientUnits="userSpaceOnUse"
       x1="282.09094"
       y1="313.75546"
       x2="374.28571"
       y2="313.75546" />
    <linearGradient
       inkscape:collect="always"
       xlink:href="#linearGradient16033"
       id="linearGradient13580"
       gradientUnits="userSpaceOnUse"
       x1="60.891617"
       y1="468.80392"
       x2="687.46136"
       y2="468.80392" />
    <linearGradient
       inkscape:collect="always"
       xlink:href="#linearGradient2815"
       id="linearGradient13582"
       gradientUnits="userSpaceOnUse"
       x1="282.09094"
       y1="313.75546"
       x2="374.28571"
       y2="313.75546" />
    <linearGradient
       inkscape:collect="always"
       xlink:href="#linearGradient2815"
       id="linearGradient13584"
       gradientUnits="userSpaceOnUse"
       x1="282.09094"
       y1="313.75546"
       x2="374.28571"
       y2="313.75546" />
    <linearGradient
       inkscape:collect="always"
       xlink:href="#linearGradient2815"
       id="linearGradient13586"
       gradientUnits="userSpaceOnUse"
       x1="282.09094"
       y1="313.75546"
       x2="374.28571"
       y2="313.75546" />
    <linearGradient
       inkscape:collect="always"
       xlink:href="#linearGradient2815"
       id="linearGradient13588"
       gradientUnits="userSpaceOnUse"
       x1="282.09094"
       y1="313.75546"
       x2="374.28571"
       y2="313.75546" />
    <linearGradient
       inkscape:collect="always"
       xlink:href="#linearGradient2815"
       id="linearGradient13590"
       gradientUnits="userSpaceOnUse"
       x1="282.09094"
       y1="313.75546"
       x2="374.28571"
       y2="313.75546" />
    <linearGradient
       inkscape:collect="always"
       xlink:href="#linearGradient2815"
       id="linearGradient13592"
       gradientUnits="userSpaceOnUse"
       x1="282.09094"
       y1="313.75546"
       x2="374.28571"
       y2="313.75546" />
    <linearGradient
       inkscape:collect="always"
       xlink:href="#linearGradient2815"
       id="linearGradient13594"
       gradientUnits="userSpaceOnUse"
       x1="282.09094"
       y1="313.75546"
       x2="374.28571"
       y2="313.75546" />
    <linearGradient
       inkscape:collect="always"
       xlink:href="#linearGradient2815"
       id="linearGradient13596"
       gradientUnits="userSpaceOnUse"
       x1="282.09094"
       y1="313.75546"
       x2="374.28571"
       y2="313.75546" />
    <linearGradient
       inkscape:collect="always"
       xlink:href="#linearGradient2815"
       id="linearGradient13598"
       gradientUnits="userSpaceOnUse"
       x1="282.09094"
       y1="313.75546"
       x2="374.28571"
       y2="313.75546" />
    <linearGradient
       inkscape:collect="always"
       xlink:href="#linearGradient2815"
       id="linearGradient13600"
       gradientUnits="userSpaceOnUse"
       x1="282.09094"
       y1="313.75546"
       x2="374.28571"
       y2="313.75546" />
    <linearGradient
       inkscape:collect="always"
       xlink:href="#linearGradient16033"
       id="linearGradient14352"
       gradientUnits="userSpaceOnUse"
       x1="60.891617"
       y1="468.80392"
       x2="687.46136"
       y2="468.80392"
       gradientTransform="matrix(1,0,0,0.937431,0,57.48128)" />
    <linearGradient
       inkscape:collect="always"
       xlink:href="#linearGradient2815"
       id="linearGradient14362"
       gradientUnits="userSpaceOnUse"
       x1="282.09094"
       y1="313.75546"
       x2="374.28571"
       y2="313.75546" />
    <linearGradient
       inkscape:collect="always"
       xlink:href="#linearGradient2815"
       id="linearGradient14364"
       gradientUnits="userSpaceOnUse"
       x1="282.09094"
       y1="313.75546"
       x2="374.28571"
       y2="313.75546" />
    <linearGradient
       inkscape:collect="always"
       xlink:href="#linearGradient2815"
       id="linearGradient14366"
       gradientUnits="userSpaceOnUse"
       x1="282.09094"
       y1="313.75546"
       x2="374.28571"
       y2="313.75546" />
    <linearGradient
       inkscape:collect="always"
       xlink:href="#linearGradient2815"
       id="linearGradient14368"
       gradientUnits="userSpaceOnUse"
       x1="282.09094"
       y1="313.75546"
       x2="374.28571"
       y2="313.75546" />
    <linearGradient
       inkscape:collect="always"
       xlink:href="#linearGradient2815"
       id="linearGradient14370"
       gradientUnits="userSpaceOnUse"
       x1="282.09094"
       y1="313.75546"
       x2="374.28571"
       y2="313.75546" />
    <linearGradient
       inkscape:collect="always"
       xlink:href="#linearGradient16033"
       id="linearGradient14401"
       gradientUnits="userSpaceOnUse"
       gradientTransform="matrix(1,0,0,0.937431,0,57.48128)"
       x1="60.891617"
       y1="468.80392"
       x2="687.46136"
       y2="468.80392" />
    <linearGradient
       inkscape:collect="always"
       xlink:href="#linearGradient2815"
       id="linearGradient14403"
       gradientUnits="userSpaceOnUse"
       x1="282.09094"
       y1="313.75546"
       x2="374.28571"
       y2="313.75546" />
    <linearGradient
       inkscape:collect="always"
       xlink:href="#linearGradient2815"
       id="linearGradient14405"
       gradientUnits="userSpaceOnUse"
       x1="282.09094"
       y1="313.75546"
       x2="374.28571"
       y2="313.75546" />
    <linearGradient
       inkscape:collect="always"
       xlink:href="#linearGradient2815"
       id="linearGradient14407"
       gradientUnits="userSpaceOnUse"
       x1="282.09094"
       y1="313.75546"
       x2="374.28571"
       y2="313.75546" />
    <linearGradient
       inkscape:collect="always"
       xlink:href="#linearGradient2815"
       id="linearGradient14409"
       gradientUnits="userSpaceOnUse"
       x1="282.09094"
       y1="313.75546"
       x2="374.28571"
       y2="313.75546" />
    <linearGradient
       inkscape:collect="always"
       xlink:href="#linearGradient2815"
       id="linearGradient14411"
       gradientUnits="userSpaceOnUse"
       x1="282.09094"
       y1="313.75546"
       x2="374.28571"
       y2="313.75546" />
    <linearGradient
       inkscape:collect="always"
       xlink:href="#linearGradient2815"
       id="linearGradient14413"
       gradientUnits="userSpaceOnUse"
       x1="282.09094"
       y1="313.75546"
       x2="374.28571"
       y2="313.75546" />
    <linearGradient
       inkscape:collect="always"
       xlink:href="#linearGradient2815"
       id="linearGradient14415"
       gradientUnits="userSpaceOnUse"
       x1="282.09094"
       y1="313.75546"
       x2="374.28571"
       y2="313.75546" />
    <linearGradient
       inkscape:collect="always"
       xlink:href="#linearGradient2815"
       id="linearGradient14417"
       gradientUnits="userSpaceOnUse"
       x1="282.09094"
       y1="313.75546"
       x2="374.28571"
       y2="313.75546" />
    <linearGradient
       inkscape:collect="always"
       xlink:href="#linearGradient2815"
       id="linearGradient14419"
       gradientUnits="userSpaceOnUse"
       x1="282.09094"
       y1="313.75546"
       x2="374.28571"
       y2="313.75546" />
    <linearGradient
       inkscape:collect="always"
       xlink:href="#linearGradient2815"
       id="linearGradient14421"
       gradientUnits="userSpaceOnUse"
       x1="282.09094"
       y1="313.75546"
       x2="374.28571"
       y2="313.75546" />
    <linearGradient
       inkscape:collect="always"
       xlink:href="#linearGradient2815"
       id="linearGradient14423"
       gradientUnits="userSpaceOnUse"
       x1="282.09094"
       y1="313.75546"
       x2="374.28571"
       y2="313.75546" />
    <linearGradient
       inkscape:collect="always"
       xlink:href="#linearGradient2815"
       id="linearGradient14425"
       gradientUnits="userSpaceOnUse"
       x1="282.09094"
       y1="313.75546"
       x2="374.28571"
       y2="313.75546" />
    <linearGradient
       inkscape:collect="always"
       xlink:href="#linearGradient16033"
       id="linearGradient14579"
       gradientUnits="userSpaceOnUse"
       gradientTransform="matrix(1,0,0,0.937431,-31.19854,53.02434)"
       x1="60.891617"
       y1="468.80392"
       x2="687.46136"
       y2="468.80392" />
    <linearGradient
       inkscape:collect="always"
       xlink:href="#linearGradient2815"
       id="linearGradient14596"
       gradientUnits="userSpaceOnUse"
       x1="282.09094"
       y1="313.75546"
       x2="374.28571"
       y2="313.75546" />
    <linearGradient
       inkscape:collect="always"
       xlink:href="#linearGradient2815"
       id="linearGradient14598"
       gradientUnits="userSpaceOnUse"
       x1="282.09094"
       y1="313.75546"
       x2="374.28571"
       y2="313.75546" />
    <linearGradient
       inkscape:collect="always"
       xlink:href="#linearGradient2815"
       id="linearGradient14600"
       gradientUnits="userSpaceOnUse"
       x1="282.09094"
       y1="313.75546"
       x2="374.28571"
       y2="313.75546" />
    <linearGradient
       inkscape:collect="always"
       xlink:href="#linearGradient2815"
       id="linearGradient14602"
       gradientUnits="userSpaceOnUse"
       x1="282.09094"
       y1="313.75546"
       x2="374.28571"
       y2="313.75546" />
    <linearGradient
       inkscape:collect="always"
       xlink:href="#linearGradient2815"
       id="linearGradient14612"
       gradientUnits="userSpaceOnUse"
       x1="282.09094"
       y1="313.75546"
       x2="374.28571"
       y2="313.75546" />
    <linearGradient
       inkscape:collect="always"
       xlink:href="#linearGradient2815"
       id="linearGradient14614"
       gradientUnits="userSpaceOnUse"
       x1="282.09094"
       y1="313.75546"
       x2="374.28571"
       y2="313.75546" />
    <linearGradient
       inkscape:collect="always"
       xlink:href="#linearGradient2815"
       id="linearGradient14829"
       gradientUnits="userSpaceOnUse"
       x1="282.09094"
       y1="313.75546"
       x2="374.28571"
       y2="313.75546" />
    <linearGradient
       inkscape:collect="always"
       xlink:href="#linearGradient2815"
       id="linearGradient14831"
       gradientUnits="userSpaceOnUse"
       x1="282.09094"
       y1="313.75546"
       x2="374.28571"
       y2="313.75546" />
    <linearGradient
       inkscape:collect="always"
       xlink:href="#linearGradient2815"
       id="linearGradient14833"
       gradientUnits="userSpaceOnUse"
       x1="282.09094"
       y1="313.75546"
       x2="374.28571"
       y2="313.75546" />
    <linearGradient
       inkscape:collect="always"
       xlink:href="#linearGradient16033"
       id="linearGradient2325"
       gradientUnits="userSpaceOnUse"
       gradientTransform="matrix(0.1430571,0,0,0.1384769,7.3540305,-13.476896)"
       x1="60.891617"
       y1="468.80392"
       x2="687.46136"
       y2="468.80392" />
  </defs>
  <sodipodi:namedview
     inkscape:document-units="px"
     id="base"
     pagecolor="#ffffff"
     bordercolor="#666666"
     borderopacity="1.0"
     inkscape:pageopacity="0.0"
     inkscape:pageshadow="2"
     inkscape:zoom="4.6473061"
     inkscape:cx="53.148891"
     inkscape:cy="67.299204"
     inkscape:current-layer="layer1"
     inkscape:window-width="910"
     inkscape:window-height="722"
     inkscape:window-x="5"
     inkscape:window-y="49"
     showguides="true"
     inkscape:guide-bbox="true"
     showgrid="false" />
  <metadata
     id="metadata4">
    <rdf:RDF>
      <cc:Work
         rdf:about="">
        <dc:format>image/svg+xml</dc:format>
        <dc:type
           rdf:resource="http://purl.org/dc/dcmitype/StillImage" />
      </cc:Work>
    </rdf:RDF>
  </metadata>
  <g
     inkscape:label="Layer 1"
     inkscape:groupmode="layer"
     id="layer1"
     transform="translate(-12.487489,-15.098397)">
    <path
       style="fill:#000000;fill-opacity:0.29487179;fill-rule:evenodd;stroke:none;stroke-width:1pt;stroke-linecap:butt;stroke-linejoin:miter;stroke-opacity:1"
       d="M 21.182085,51.46997 C 21.182085,51.46997 37.980216,36.511509 49.435112,30.005852 C 56.544297,25.96829 66.10146,24.280505 74.431114,25.432602 C 89.456109,27.510756 109.90486,35.353919 109.90486,35.353919 C 115.86477,36.944614 120.08331,43.323699 118.4197,51.355914 C 115.41436,65.8663 113.81007,76.045148 110.09719,88.694669 C 108.78971,93.149159 107.16102,97.712044 104.87588,101.36776 L 96.672742,114.49099 C 93.590936,119.42121 90.499773,120.25175 84.300885,121.07313 C 71.778295,122.73245 53.509615,117.84404 38.077465,110.13711 C 31.816391,107.01028 29.053429,104.86425 25.817017,99.054715 C 19.803428,88.259999 18.371621,78.174177 16.400715,66.131425 C 15.335208,59.620879 17.421905,56.242053 21.182085,51.46997 z "
       id="path5827"
       sodipodi:nodetypes="csscssssssssc" />
    <path
       style="fill:#000000;fill-opacity:1;fill-rule:evenodd;stroke:#000000;stroke-width:0.14504871pt;stroke-linecap:butt;stroke-linejoin:miter;stroke-opacity:1"
       d="M 18.748294,41.657879 C 18.748294,41.657879 30.445016,26.916436 41.408283,20.243646 C 48.212341,16.102358 57.359321,14.371212 65.331469,15.55291 C 79.711605,17.684452 100.00786,25.781208 100.00786,25.781208 C 105.71198,27.412767 110.45845,30.82232 109.6755,39.167413 C 108.33403,53.465149 103.87817,63.688144 101.5762,77.263947 C 101.09688,81.965945 97.122929,89.33007 95.219708,93.22308 L 89.121611,105.69663 C 86.554868,110.94686 80.774484,113.71954 74.77764,113.65049 C 65.921399,113.54852 48.813836,108.92003 35.295585,102.18597 C 29.203402,99.151172 24.942133,95.396267 23.15845,90.42887 C 19.106332,79.144092 12.587133,69.665309 12.578151,57.313175 C 12.573244,50.56386 15.149496,46.55256 18.748294,41.657879 z "
       id="rect5098"
       sodipodi:nodetypes="csscssssssssc" />
    <path
       style="fill:#ffffff;fill-opacity:1;fill-rule:evenodd;stroke:none;stroke-width:1pt;stroke-linecap:butt;stroke-linejoin:miter;stroke-opacity:1"
       d="M 22.43619,42.379659 C 22.43619,42.379659 33.326014,28.376819 43.532978,22.03836 C 49.867656,18.104566 57.157428,18.042753 64.579614,19.165242 C 77.967737,21.189984 94.01417,27.253931 94.01417,27.253931 C 99.324788,28.803742 106.45966,30.045971 106.24237,36.459784 C 105.84744,48.116581 102.57943,62.41134 99.479881,75.306942 C 98.429398,79.677462 96.468904,86.373352 94.620656,90.028216 L 87.954794,103.20982 C 85.462195,108.13888 78.139824,111.62204 72.556673,111.55646 C 64.31138,111.45959 50.331945,106.34151 37.74625,101.11737 C 31.865619,98.676399 26.76237,92.807483 24.589905,86.843895 C 20.550505,75.755431 17.143602,68.726489 15.541251,57.301838 C 14.650235,50.948969 19.085657,47.029099 22.43619,42.379659 z "
       id="path12391"
       sodipodi:nodetypes="csscssssssssc" />
    <path
       style="fill:url(#linearGradient2325);fill-opacity:1;fill-rule:evenodd;stroke:none;stroke-width:1.3365448pt;stroke-linecap:butt;stroke-linejoin:miter;stroke-opacity:1"
       d="M 62.788615,19.659563 C 77.367113,21.278227 85.323625,25.293476 97.492387,29.40871 C 103.82093,31.548897 109.18188,36.051918 102.88751,46.840273 L 85.446779,76.733121 C 81.645259,83.303437 70.910726,84.602953 64.13347,82.717287 L 26.847729,68.596102 C 20.070471,66.710436 13.255866,57.390408 17.254315,50.842256 C 22.898163,41.59948 32.215225,32.25626 41.129196,24.292085 C 46.549345,19.449465 55.874243,18.891854 62.788615,19.659563 z "
       id="rect5076"
       sodipodi:nodetypes="csscccsss" />
    <path
       style="fill:#b01910;fill-opacity:1;fill-rule:evenodd;stroke:none;stroke-width:1.30550385pt;stroke-linecap:butt;stroke-linejoin:miter;stroke-opacity:1"
       d="M 65.908228,110.99669 C 53.60388,108.66418 45.418347,104.06963 35.795386,99.739704 C 30.486681,97.351005 26.101282,91.712975 24.891912,87.2757 L 20.290624,73.725049 C 18.078192,67.209503 21.841194,67.392744 28.52063,70.138312 L 65.072035,83.756745 C 70.768393,85.512629 75.652138,89.619443 75.658646,96.572595 C 75.661627,99.759184 75.610418,102.09147 75.133605,106.40822 C 74.817933,109.26607 71.968812,112.1456 65.908228,110.99669 z "
       id="path6555"
       sodipodi:nodetypes="cscsccsss" />
    <path
       style="fill:#b01910;fill-opacity:1;fill-rule:evenodd;stroke:none;stroke-width:1.29940939pt;stroke-linecap:butt;stroke-linejoin:miter;stroke-opacity:1"
       d="M 92.590914,92.292925 C 89.874589,97.889345 90.861638,98.620702 87.435029,104.26731 C 84.232274,109.54505 78.029452,110.13272 78.303989,106.3308 L 78.960447,97.239955 C 79.418521,90.896377 82.726353,83.829764 84.630614,80.598331 C 89.80811,71.8124 96.165139,62.037518 100.84086,54.284944 C 102.68138,51.233283 103.75195,55.333001 103.10019,57.725556 L 97.391021,78.683554 C 96.311522,82.646328 93.908126,89.579085 92.590914,92.292925 z "
       id="path7283"
       sodipodi:nodetypes="cssssssss" />
    <g
       id="g1338"
       transform="matrix(9.1170573e-2,4.6980586e-2,-3.77047e-2,0.1286404,13.228842,21.519726)"
       style="fill:url(#linearGradient2821);fill-opacity:1">
      <path
         transform="translate(-14.28571,-51.42857)"
         sodipodi:open="true"
         sodipodi:end="5.9206252"
         sodipodi:start="0"
         d="M 388.57143,368.07648 A 45.714287,21.428572 0 1 1 385.59963,360.47643"
         sodipodi:ry="21.428572"
         sodipodi:rx="45.714287"
         sodipodi:cy="368.07648"
         sodipodi:cx="342.85715"
         id="path1340"
         style="fill:url(#linearGradient14403);fill-opacity:1;fill-rule:evenodd;stroke:none;stroke-width:1pt;stroke-linecap:butt;stroke-linejoin:miter;stroke-opacity:1"
         sodipodi:type="arc" />
      <path
         sodipodi:nodetypes="cscsc"
         id="path1342"
         d="M 341.22761,333.73564 C 388.67601,320.61754 363.80364,295.90455 330.57164,296.05283 C 297.33965,296.20111 282.5862,311.14895 294.82609,331.00918 C 263.81252,312.39925 295.1008,289.58313 328.33279,289.43484 C 361.25469,289.28795 404.78537,326.99024 341.22761,333.73564 z "
         style="fill:url(#linearGradient14405);fill-opacity:1;fill-rule:evenodd;stroke:none;stroke-width:1pt;stroke-linecap:butt;stroke-linejoin:miter;stroke-opacity:1" />
    </g>
    <g
       id="g2823"
       transform="matrix(9.1170573e-2,4.6980586e-2,-3.77047e-2,0.1286404,48.470892,50.466279)"
       style="fill:url(#linearGradient2829);fill-opacity:1">
      <path
         transform="translate(-14.28571,-51.42857)"
         sodipodi:open="true"
         sodipodi:end="5.9206252"
         sodipodi:start="0"
         d="M 388.57143,368.07648 A 45.714287,21.428572 0 1 1 385.59963,360.47643"
         sodipodi:ry="21.428572"
         sodipodi:rx="45.714287"
         sodipodi:cy="368.07648"
         sodipodi:cx="342.85715"
         id="path2825"
         style="fill:url(#linearGradient14407);fill-opacity:1;fill-rule:evenodd;stroke:none;stroke-width:1pt;stroke-linecap:butt;stroke-linejoin:miter;stroke-opacity:1"
         sodipodi:type="arc" />
      <path
         sodipodi:nodetypes="cscsc"
         id="path2827"
         d="M 341.22761,333.73564 C 388.67601,320.61754 363.80364,295.90455 330.57164,296.05283 C 297.33965,296.20111 282.5862,311.14895 294.82609,331.00918 C 263.81252,312.39925 295.1008,289.58313 328.33279,289.43484 C 361.25469,289.28795 404.78537,326.99024 341.22761,333.73564 z "
         style="fill:url(#linearGradient14409);fill-opacity:1;fill-rule:evenodd;stroke:none;stroke-width:1pt;stroke-linecap:butt;stroke-linejoin:miter;stroke-opacity:1" />
    </g>
    <g
       id="g8201"
       transform="matrix(9.1170573e-2,4.6980586e-2,-3.77047e-2,0.1286404,18.743653,39.747229)"
       style="fill:url(#linearGradient8207);fill-opacity:1">
      <path
         transform="translate(-14.28571,-51.42857)"
         sodipodi:open="true"
         sodipodi:end="5.9206252"
         sodipodi:start="0"
         d="M 388.57143,368.07648 A 45.714287,21.428572 0 1 1 385.59963,360.47643"
         sodipodi:ry="21.428572"
         sodipodi:rx="45.714287"
         sodipodi:cy="368.07648"
         sodipodi:cx="342.85715"
         id="path8203"
         style="fill:url(#linearGradient14411);fill-opacity:1;fill-rule:evenodd;stroke:none;stroke-width:1pt;stroke-linecap:butt;stroke-linejoin:miter;stroke-opacity:1"
         sodipodi:type="arc" />
      <path
         sodipodi:nodetypes="cscsc"
         id="path8205"
         d="M 341.22761,333.73564 C 388.67601,320.61754 363.80364,295.90455 330.57164,296.05283 C 297.33965,296.20111 282.5862,311.14895 294.82609,331.00918 C 263.81252,312.39925 295.1008,289.58313 328.33279,289.43484 C 361.25469,289.28795 404.78537,326.99024 341.22761,333.73564 z "
         style="fill:url(#linearGradient14413);fill-opacity:1;fill-rule:evenodd;stroke:none;stroke-width:1pt;stroke-linecap:butt;stroke-linejoin:miter;stroke-opacity:1" />
    </g>
    <g
       id="g8266"
       transform="matrix(9.1170573e-2,4.6980586e-2,-3.77047e-2,0.1286404,46.797897,34.192575)"
       style="fill:url(#linearGradient8272);fill-opacity:1">
      <path
         transform="translate(-14.28571,-51.42857)"
         sodipodi:open="true"
         sodipodi:end="5.9206252"
         sodipodi:start="0"
         d="M 388.57143,368.07648 A 45.714287,21.428572 0 1 1 385.59963,360.47643"
         sodipodi:ry="21.428572"
         sodipodi:rx="45.714287"
         sodipodi:cy="368.07648"
         sodipodi:cx="342.85715"
         id="path8268"
         style="fill:url(#linearGradient14415);fill-opacity:1;fill-rule:evenodd;stroke:none;stroke-width:1pt;stroke-linecap:butt;stroke-linejoin:miter;stroke-opacity:1"
         sodipodi:type="arc" />
      <path
         sodipodi:nodetypes="cscsc"
         id="path8270"
         d="M 341.22761,333.73564 C 388.67601,320.61754 363.80364,295.90455 330.57164,296.05283 C 297.33965,296.20111 282.5862,311.14895 294.82609,331.00918 C 263.81252,312.39925 295.1008,289.58313 328.33279,289.43484 C 361.25469,289.28795 404.78537,326.99024 341.22761,333.73564 z "
         style="fill:url(#linearGradient14417);fill-opacity:1;fill-rule:evenodd;stroke:none;stroke-width:1pt;stroke-linecap:butt;stroke-linejoin:miter;stroke-opacity:1" />
    </g>
  </g>
</svg>
